#!OML:ASF F:\VICON\USERDATA\INSTALL\rory3\rory3.ASF
:FULLY-SPECIFIED
:DEGREES
258
root -0.415498 15.9551 -4.27112 -160.958 3.57287 185.426
lowerback -1.06263 5.87011 3.86234
upperback 1.28365 7.84023 1.60214
thorax 2.20102 4.00228 -0.239469
lowerneck -8.3891 3.83107 -0.246773
upperneck 46.0178 -3.56859 2.43396
head 19.1145 -3.27613 -0.119415
rclavicle 1.31198e-014 3.81667e-014
rhumerus -26.7839 -69.0315 20.4426
rradius 14.1746
rwrist 115.128
rhand 23.6714 -1.15673
rfingers 7.12502
rthumb 47.9386 -23.3981
lclavicle 1.31198e-014 3.81667e-014
lhumerus -19.3683 -31.3812 5.38113
lradius 16.2827
lwrist -58.4538
lhand 26.975 30.9361
lfingers 7.12502
lthumb 50.9679 51.6353
rfemur -19.0733 -8.13522 28.8283
rtibia 53.6696
rfoot -4.12102 -20.7043
rtoes 5.57826
lfemur -61.7819 7.17797 -29.4167
ltibia 41.414
lfoot -10.6373 30.7704
ltoes 13.4769
259
root -0.475687 15.9226 -4.37985 -160.736 3.86327 185.621
lowerback -1.34478 5.62403 4.46047
upperback 1.47657 7.48155 1.54539
thorax 2.63 3.84184 -0.586877
lowerneck -8.25727 4.14325 -0.29
upperneck 46.0227 -3.08511 2.37855
head 19.0607 -3.11384 -0.0561174
rclavicle -4.09496e-014 -6.36111e-015
rhumerus -21.7991 -69.9589 15.1043
rradius 14.456
rwrist 116.773
rhand 23.2807 -0.726212
rfingers 7.12502
rthumb 47.5782 -23.1335
lclavicle -4.09496e-014 -6.36111e-015
lhumerus -18.626 -32.3188 5.41575
lradius 16.3319
lwrist -58.633
lhand 26.5711 30.6062
lfingers 7.12502
lthumb 50.5996 51.5083
rfemur -20.8853 -10.7642 28.7129
rtibia 56.4969
rfoot -2.66504 -22.5137
rtoes 9.04932
lfemur -61.9612 7.62668 -29.7838
ltibia 42.106
lfoot -11.1684 30.1043
ltoes 11.7267
260
root -0.494168 15.8868 -4.47155 -160.657 4.78681 185.193
lowerback -1.37025 5.48218 3.59788
upperback 1.85467 7.296 1.49253
thorax 2.92471 3.73831 -0.158348
lowerneck -8.46226 4.41543 -0.314852
upperneck 45.9851 -2.39871 1.97033
head 19.057 -2.88116 -0.128958
rclavicle -7.93151e-014 -7.15625e-015
rhumerus -16.8483 -72.897 10.0413
rradius 14.5576
rwrist 120.481
rhand 22.9819 -0.325805
rfingers 7.12502
rthumb 47.3021 -22.8578
lclavicle -7.93151e-014 -7.15625e-015
lhumerus -17.7829 -32.3737 5.53501
lradius 16.4552
lwrist -59.267
lhand 26.6996 30.4046
lfingers 7.12502
lthumb 50.7168 51.2426
rfemur -22.9469 -12.4176 28.1858
rtibia 59.4771
rfoot -2.15342 -25.4152
rtoes 16.4779
lfemur -62.0486 8.35684 -30.6397
ltibia 42.7846
lfoot -12.1966 29.4891
ltoes 11.3992
261
root -0.516079 15.8543 -4.54802 -160.757 5.31924 184.789
lowerback -0.761021 5.48234 3.19647
upperback 2.03675 7.32581 1.25355
thorax 2.75321 3.7457 -0.237065
lowerneck -8.71338 4.46219 -0.505584
upperneck 46.0254 -2.38692 2.2112
head 19.1598 -2.86959 0.0240524
rclavicle 9.58142e-014 3.18055e-014
rhumerus -13.2419 -73.8995 6.11633
rradius 14.683
rwrist 122.411
rhand 23.4652 -0.244644
rfingers 7.12502
rthumb 47.7484 -22.574
lclavicle 9.58142e-014 3.18055e-014
lhumerus -15.9429 -33.474 5.3511
lradius 16.5797
lwrist -59.2587
lhand 27.1336 30.5487
lfingers 7.12502
lthumb 51.1125 51.1671
rfemur -25.036 -14.3279 27.9059
rtibia 62.4596
rfoot -0.571175 -28.7324
rtoes 20.8109
lfemur -61.9457 8.70903 -31.2731
ltibia 43.4266
lfoot -13.3948 28.971
ltoes 11.9217
262
root -0.539711 15.8219 -4.62491 -160.847 5.63522 184.598
lowerback -0.152741 5.49237 3.23666
upperback 2.03648 7.36083 0.981423
thorax 2.45478 3.76206 -0.59858
lowerneck -8.32674 4.50104 -0.383196
upperneck 45.9095 -2.45658 2.34462
head 18.9793 -2.86969 0.0592026
rclavicle 3.00165e-014 6.36111e-015
rhumerus -9.55769 -73.1946 1.92343
rradius 14.8673
rwrist 122.826
rhand 23.8996 -0.285751
rfingers 7.12502
rthumb 48.149 -22.4288
lclavicle 3.00165e-014 6.36111e-015
lhumerus -13.9938 -34.7277 4.93842
lradius 16.7129
lwrist -59.4547
lhand 27.2973 30.8494
lfingers 7.12502
lthumb 51.2615 51.3836
rfemur -27.1188 -16.1825 27.9663
rtibia 65.4103
rfoot 1.39703 -32.0697
rtoes 26.5166
lfemur -61.9517 9.07973 -31.7524
ltibia 43.9887
lfoot -13.7991 28.6769
ltoes 10.6813
263
root -0.553251 15.7875 -4.69307 -161.256 5.7762 184.219
lowerback 0.62599 5.09243 2.57428
upperback 2.56762 6.87639 1.09483
thorax 2.45525 3.52215 -0.188095
lowerneck -8.81591 4.64839 -0.512151
upperneck 45.7181 -1.78693 1.89243
head 18.954 -2.6353 -0.00952198
rclavicle -5.40694e-014 1.11319e-014
rhumerus -1.41569 -74.5455 -6.51997
rradius 15.049
rwrist 124.806
rhand 23.6587 -0.29157
rfingers 7.12502
rthumb 47.9269 -22.5384
lclavicle -5.40694e-014 1.11319e-014
lhumerus -13.1965 -34.5447 5.2779
lradius 16.7905
lwrist -60.1628
lhand 27.5738 30.8759
lfingers 7.12502
lthumb 51.513 51.2664
rfemur -28.7666 -18.0998 27.8564
rtibia 68.2882
rfoot 0.990604 -35.537
rtoes 36.3762
lfemur -61.7218 9.54594 -32.4487
ltibia 44.522
lfoot -13.7638 28.3518
ltoes 9.00589
264
root -0.560527 15.7502 -4.73925 -161.945 5.88551 183.325
lowerback 1.80232 5.02193 1.72083
upperback 3.06516 6.83791 0.777106
thorax 2.24799 3.50167 -0.13606
lowerneck -9.22204 4.4551 -0.395591
upperneck 45.4851 -1.9788 1.95394
head 18.9217 -2.6287 -0.0192935
rclavicle -5.4467e-014 8.74653e-015
rhumerus 1.97802 -75.262 -10.4138
rradius 15.2052
rwrist 126.421
rhand 23.418 -0.222387
rfingers 7.12502
rthumb 47.7049 -22.5717
lclavicle -5.4467e-014 8.74653e-015
lhumerus -10.8301 -36.9286 4.87634
lradius 17.0769
lwrist -58.663
lhand 28.0784 31.3394
lfingers 7.12502
lthumb 51.9713 51.4621
rfemur -30.2667 -20.0908 27.2433
rtibia 71.1888
rfoot -2.15179 -38.5155
rtoes 44.4013
lfemur -61.2397 10.0241 -33.7188
ltibia 45.0469
lfoot -13.9898 27.8026
ltoes 8.17329
265
root -0.574699 15.7118 -4.78009 -162.346 6.00232 182.51
lowerback 2.77966 4.85674 0.884968
upperback 3.48102 6.6578 0.546953
thorax 2.0604 3.41131 0.0128052
lowerneck -9.81907 4.44157 -0.516883
upperneck 45.4864 -1.93366 2.08322
head 19.0914 -2.57672 0.0779975
rclavicle 1.55052e-014 -1.66979e-014
rhumerus 7.50121 -75.6676 -16.4688
rradius 15.3818
rwrist 127.645
rhand 23.3384 -0.0947083
rfingers 7.12502
rthumb 47.6314 -22.4777
lclavicle 1.55052e-014 -1.66979e-014
lhumerus -8.91767 -39.5602 4.58905
lradius 17.2794
lwrist -56.4853
lhand 27.7159 31.6499
lfingers 7.12502
lthumb 51.6422 51.9657
rfemur -32.2402 -21.8791 26.7984
rtibia 74.0505
rfoot -4.03407 -40.3071
rtoes 47.7502
lfemur -61.061 10.2585 -34.8219
ltibia 45.6262
lfoot -14.6637 27.2837
ltoes 8.40014
266
root -0.596371 15.6734 -4.84049 -162.311 6.1512 181.851
lowerback 2.83815 4.59873 0.159074
upperback 3.83422 6.3288 0.403346
thorax 2.32785 3.24111 0.280054
lowerneck -9.98419 4.51244 -0.412023
upperneck 45.325 -1.6037 1.76196
head 19.0153 -2.44094 -0.0293469
rclavicle -1.13307e-014 -3.97569e-015
rhumerus 14.7862 -75.5514 -24.3965
rradius 15.5836
rwrist 128.64
rhand 23.6768 -0.0421885
rfingers 7.12502
rthumb 47.9436 -22.2813
lclavicle -1.13307e-014 -3.97569e-015
lhumerus -7.63107 -41.7645 4.56244
lradius 17.4747
lwrist -54.2054
lhand 29.4959 30.4075
lfingers 7.12502
lthumb 53.2532 49.7382
rfemur -34.5822 -23.6386 26.53
rtibia 76.7998
rfoot -2.19725 -40.9122
rtoes 48.2492
lfemur -61.3209 10.463 -35.8858
ltibia 46.286
lfoot -15.2187 26.8044
ltoes 8.0682
267
root -0.616586 15.6344 -4.90422 -162.151 6.42755 181.376
lowerback 2.34555 4.4484 -0.352473
upperback 4.38651 6.1677 0.237977
thorax 3.14088 3.15912 0.469715
lowerneck -10.2715 4.4627 -0.247348
upperneck 45.0055 -1.36581 1.40936
head 18.8755 -2.3095 -0.168902
rclavicle 2.04748e-014 -3.18055e-015
rhumerus 21.406 -75.3391 -31.7059
rradius 15.7969
rwrist 129.554
rhand 24.2197 -0.0588769
rfingers 7.12502
rthumb 48.4438 -22.062
lclavicle 2.04748e-014 -3.18055e-015
lhumerus -5.86889 -43.744 4.16248
lradius 17.67
lwrist -52.0268
lhand 29.045 30.9446
lfingers 7.12502
lthumb 52.8463 50.5338
rfemur -37.1251 -25.23 26.5667
rtibia 79.4022
rfoot 4.15144 -40.848
rtoes 46.4428
lfemur -61.8334 10.9919 -36.9761
ltibia 47.0269
lfoot -15.8602 26.0936
ltoes 8.13316
268
root -0.634536 15.5894 -4.95349 -162.169 6.53462 180.886
lowerback 3.71198 4.4475 -0.639804
upperback 3.79864 6.12088 -0.154418
thorax 1.78354 3.13035 0.0708592
lowerneck -9.61989 4.61072 0.130079
upperneck 45.2989 -1.60913 1.56013
head 18.8994 -2.38832 -0.226767
rclavicle -2.42517e-014 -5.1684e-015
rhumerus 20.8061 -73.5744 -32.1389
rradius 15.8859
rwrist 129.955
rhand 24.1383 -0.0985683
rfingers 7.12502
rthumb 48.3689 -22.1374
lclavicle -2.42517e-014 -5.1684e-015
lhumerus -3.34974 -45.1208 2.90713
lradius 17.974
lwrist -52.1449
lhand 27.4251 31.9628
lfingers 7.12502
lthumb 51.3778 52.4309
rfemur -39.6288 -26.8067 26.748
rtibia 81.8785
rfoot 11.1395 -39.9237
rtoes 44.5211
lfemur -62.1661 11.3841 -37.9107
ltibia 47.7669
lfoot -16.8141 25.1822
ltoes 9.68446
269
root -0.645212 15.5345 -4.98413 -162.247 6.3626 180.267
lowerback 4.86755 4.12459 -1.39093
upperback 3.64683 5.65427 -0.223798
thorax 0.923302 2.89054 0.31824
lowerneck -9.60253 4.84817 -0.0437943
upperneck 45.5078 -1.35595 1.6435
head 19.0263 -2.33364 -0.121233
rclavicle 8.34896e-015 1.27222e-014
rhumerus 23.936 -71.949 -36.1823
rradius 16.0445
rwrist 130.269
rhand 23.5333 -0.202845
rfingers 7.12502
rthumb 47.8112 -22.5033
lclavicle 8.34896e-015 1.27222e-014
lhumerus -2.05133 -44.8346 2.83878
lradius 18.0924
lwrist -52.9479
lhand 26.3044 32.6295
lfingers 7.12502
lthumb 50.3559 53.6633
rfemur -42.142 -28.355 27.0052
rtibia 84.2967
rfoot 15.1336 -39.4609
rtoes 44.6082
lfemur -62.4814 11.5345 -38.8452
ltibia 48.4619
lfoot -17.2286 24.3869
ltoes 10.0759
270
root -0.651208 15.4758 -5.00851 -162.193 6.12991 179.567
lowerback 5.69649 3.77124 -2.30403
upperback 3.50328 5.12418 -0.259708
thorax 0.250739 2.6183 0.737853
lowerneck -9.21865 5.06567 -0.0151358
upperneck 45.4953 -1.00286 1.42847
head 18.8992 -2.23832 -0.171215
rclavicle -2.38542e-015 -9.54166e-015
rhumerus 27.1285 -70.3686 -40.288
rradius 16.0171
rwrist 130.605
rhand 22.8096 -0.456021
rfingers 7.12502
rthumb 47.1429 -23.059
lclavicle -2.38542e-015 -9.54166e-015
lhumerus -0.965403 -45.0924 2.91664
lradius 18.2127
lwrist -52.846
lhand 25.7874 32.7264
lfingers 7.12502
lthumb 49.8831 54.0103
rfemur -44.7988 -29.7612 27.3708
rtibia 86.6161
rfoot 17.6263 -40.5538
rtoes 46.6197
lfemur -62.9673 11.7092 -40.035
ltibia 49.0985
lfoot -17.2361 23.7093
ltoes 8.90114
